<svg width="40" height="40" viewBox="0 0 40 40" fill="none" xmlns="http://www.w3.org/2000/svg">
<rect width="40" height="40" rx="20" fill="url(#paint0_radial_56_398)"/>
<path d="M18.7094 20C18.7094 21.8185 17.2352 23.2926 15.4167 23.2926C13.5983 23.2926 12.1241 21.8185 12.1241 20C12.1241 18.1815 13.5983 16.7074 15.4167 16.7074C17.2352 16.7074 18.7094 18.1815 18.7094 20Z" fill="#77433B"/>
<path d="M27.5004 13.8591C27.5004 15.3711 26.2747 16.5968 24.7627 16.5968C23.2507 16.5968 22.025 15.3711 22.025 13.8591C22.025 12.3472 23.2507 11.1215 24.7627 11.1215C26.2747 11.1215 27.5004 12.3472 27.5004 13.8591Z" fill="#77433B"/>
<path fill-rule="evenodd" clip-rule="evenodd" d="M20.1657 10.6589C19.5916 10.7566 18.9943 11.2926 18.6164 11.8675C18.3865 12.2171 17.9168 12.3142 17.5672 12.0843C17.2176 11.8545 17.1205 11.3847 17.3504 11.0351C17.8177 10.3242 18.7236 9.36737 19.9115 9.1652C20.5392 9.05836 21.2042 9.17214 21.8438 9.58598C22.4659 9.98855 23.0298 10.6518 23.5371 11.5921C23.7358 11.9603 23.5983 12.4199 23.2301 12.6185C22.8618 12.8172 22.4023 12.6797 22.2036 12.3115C21.7705 11.5086 21.3591 11.077 21.0206 10.858C20.6996 10.6503 20.419 10.6157 20.1657 10.6589Z" fill="#BF6456"/>
<path fill-rule="evenodd" clip-rule="evenodd" d="M18.1196 6.40537C18.0749 5.82474 17.5959 5.18089 17.058 4.75186C16.731 4.49095 16.6773 4.01429 16.9382 3.68722C17.1991 3.36014 17.6758 3.3065 18.0029 3.56741C18.668 4.09797 19.5378 5.08766 19.6303 6.28907C19.6792 6.92391 19.5049 7.57577 19.0342 8.17469C18.5764 8.7573 17.8642 9.25813 16.8814 9.67712C16.4966 9.8412 16.0515 9.66221 15.8875 9.27733C15.7234 8.89245 15.9024 8.44744 16.2872 8.28335C17.1264 7.9256 17.5939 7.55543 17.843 7.23847C18.0793 6.93783 18.1394 6.66154 18.1196 6.40537Z" fill="#BF6456"/>
<path fill-rule="evenodd" clip-rule="evenodd" d="M24.2148 8.69783C24.3054 9.27309 24.834 9.87696 25.4041 10.262C25.7508 10.4962 25.842 10.9671 25.6079 11.3138C25.3737 11.6606 24.9028 11.7518 24.5561 11.5176C23.851 11.0414 22.9055 10.1238 22.7181 8.93345C22.6191 8.30448 22.7411 7.64087 23.1629 7.00653C23.5732 6.38947 24.2434 5.8338 25.1899 5.33826C25.5606 5.1442 26.0184 5.28737 26.2124 5.65804C26.4065 6.0287 26.2633 6.4865 25.8927 6.68056C25.0845 7.10369 24.6478 7.50973 24.4246 7.84543C24.2129 8.16384 24.1749 8.44402 24.2148 8.69783Z" fill="#BF6456"/>
<path fill-rule="evenodd" clip-rule="evenodd" d="M22.0286 4.30517C22.6031 4.4003 23.3427 4.08869 23.8876 3.66876C24.219 3.41338 24.6947 3.47502 24.9501 3.80644C25.2055 4.13785 25.1438 4.61354 24.8124 4.86892C24.1385 5.38822 22.9698 5.99679 21.7811 5.79995C21.1529 5.69594 20.5614 5.37121 20.0921 4.7712C19.6356 4.18754 19.3191 3.37646 19.1468 2.32209C19.0792 1.90918 19.3592 1.51972 19.7722 1.45221C20.1851 1.3847 20.5745 1.6647 20.642 2.07761C20.7892 2.97791 21.0372 3.5202 21.2855 3.83772C21.5211 4.13891 21.7751 4.2632 22.0286 4.30517Z" fill="#BF6456"/>
<path d="M34.1938 20.8966C32.5438 19.442 26.3458 18.4381 23.3841 21.7976C20.4225 25.1572 21.0967 30.2249 22.7467 31.6796C24.3968 33.1342 25.0903 29.5306 28.052 26.1711C31.0136 22.8115 35.8439 22.3512 34.1938 20.8966Z" fill="url(#paint1_linear_56_398)"/>
<defs>
<radialGradient id="paint0_radial_56_398" cx="0" cy="0" r="1" gradientUnits="userSpaceOnUse" gradientTransform="translate(22.9165 24.1882) rotate(95.5656) scale(30.0718)">
<stop stop-color="#FFB1A0"/>
<stop offset="1" stop-color="#E56F5E"/>
</radialGradient>
<linearGradient id="paint1_linear_56_398" x1="29.9156" y1="26.9271" x2="22.8879" y2="19.928" gradientUnits="userSpaceOnUse">
<stop stop-color="#F79D8C"/>
<stop offset="0.845" stop-color="#B24F3F"/>
</linearGradient>
</defs>
</svg>
