<svg width="40" height="40" viewBox="0 0 40 40" fill="none" xmlns="http://www.w3.org/2000/svg">
<rect width="40" height="40" rx="20" fill="url(#paint0_radial_56_386)"/>
<path d="M16.4917 21.9587C16.4917 23.0405 15.6147 23.9175 14.533 23.9175C13.4512 23.9175 12.5742 23.0405 12.5742 21.9587C12.5742 20.877 13.4512 20 14.533 20C15.6147 20 16.4917 20.877 16.4917 21.9587Z" fill="#A56D2C"/>
<path d="M25.9722 14.9071C25.9722 15.9889 25.0952 16.8658 24.0134 16.8658C22.9316 16.8658 22.0547 15.9889 22.0547 14.9071C22.0547 13.8253 22.9316 12.9484 24.0134 12.9484C25.0952 12.9484 25.9722 13.8253 25.9722 14.9071Z" fill="#A56D2C"/>
<path fill-rule="evenodd" clip-rule="evenodd" d="M26.5464 18.2231C26.7465 18.0327 27.0629 18.0407 27.2533 18.2408L26.891 18.5854C27.2533 18.2408 27.2536 18.2411 27.254 18.2415L27.2547 18.2423L27.2564 18.244L27.2601 18.2481L27.2695 18.2585C27.2766 18.2664 27.2852 18.2764 27.2952 18.2884C27.3151 18.3125 27.3404 18.3448 27.3689 18.3853C27.426 18.4663 27.4965 18.5808 27.5633 18.7284C27.6977 19.0257 27.8139 19.452 27.7764 19.996C27.701 21.0881 27.0182 22.5384 24.9185 24.3125C22.8113 26.0931 21.2144 26.5127 20.0782 26.4011C19.5146 26.3457 19.0918 26.1614 18.8046 25.983C18.6617 25.8943 18.5531 25.8074 18.4772 25.7394C18.4393 25.7054 18.4094 25.6759 18.3875 25.6531C18.3765 25.6417 18.3675 25.6319 18.3604 25.624L18.3512 25.6136L18.3476 25.6096L18.3461 25.6078L18.3455 25.607C18.3451 25.6066 18.3448 25.6063 18.7267 25.2836L18.3448 25.6063C18.1666 25.3954 18.1931 25.0799 18.404 24.9017C18.6132 24.7249 18.9252 24.7495 19.1042 24.9556C19.1049 24.9564 19.1061 24.9577 19.108 24.9596C19.114 24.9659 19.1264 24.9783 19.145 24.995C19.1824 25.0286 19.2446 25.0791 19.3323 25.1336C19.5063 25.2417 19.7838 25.3673 20.176 25.4059C20.9516 25.482 22.2892 25.2251 24.2731 23.5487C26.2647 21.8659 26.7293 20.6435 26.7788 19.9272C26.8036 19.567 26.7266 19.3052 26.6521 19.1404C26.6143 19.0569 26.5766 18.9969 26.5514 18.9612C26.5388 18.9433 26.5295 18.9317 26.5251 18.9264C26.5242 18.9253 26.5235 18.9245 26.523 18.9239C26.3385 18.7236 26.3483 18.4115 26.5464 18.2231Z" fill="#A56D2C"/>
<defs>
<radialGradient id="paint0_radial_56_386" cx="0" cy="0" r="1" gradientUnits="userSpaceOnUse" gradientTransform="translate(22.9165 24.1882) rotate(95.5656) scale(30.0718)">
<stop stop-color="#FFD796"/>
<stop offset="1" stop-color="#ED993E"/>
</radialGradient>
</defs>
</svg>
