<svg width="40" height="40" viewBox="0 0 40 40" fill="none" xmlns="http://www.w3.org/2000/svg">
<rect width="40" height="40" rx="20" fill="url(#paint0_radial_56_377)"/>
<path d="M16.4917 21.9587C16.4917 23.0405 15.6147 23.9175 14.533 23.9175C13.4512 23.9175 12.5742 23.0405 12.5742 21.9587C12.5742 20.877 13.4512 20 14.533 20C15.6147 20 16.4917 20.877 16.4917 21.9587Z" fill="#666943"/>
<path d="M25.9722 14.9071C25.9722 15.9889 25.0952 16.8658 24.0134 16.8658C22.9316 16.8658 22.0547 15.9889 22.0547 14.9071C22.0547 13.8253 22.9316 12.9484 24.0134 12.9484C25.0952 12.9484 25.9722 13.8253 25.9722 14.9071Z" fill="#666943"/>
<path d="M28.9668 16.6284C30.3577 18.3325 31.1252 24.5641 27.6556 27.396C24.1859 30.2278 19.1474 29.3615 17.7565 27.6573C16.3656 25.9532 19.993 25.3971 23.4627 22.5653C26.9323 19.7335 27.5759 14.9242 28.9668 16.6284Z" fill="url(#paint1_linear_56_377)"/>
<defs>
<radialGradient id="paint0_radial_56_377" cx="0" cy="0" r="1" gradientUnits="userSpaceOnUse" gradientTransform="translate(22.9165 24.1882) rotate(95.5656) scale(30.0718)">
<stop stop-color="#D2D78A"/>
<stop offset="1" stop-color="#71955E"/>
</radialGradient>
<linearGradient id="paint1_linear_56_377" x1="22.778" y1="20.6743" x2="29.505" y2="27.9629" gradientUnits="userSpaceOnUse">
<stop stop-color="#666943"/>
<stop offset="1" stop-color="#666943" stop-opacity="0"/>
</linearGradient>
</defs>
</svg>
