<svg width="40" height="40" viewBox="0 0 40 40" fill="none" xmlns="http://www.w3.org/2000/svg">
<rect width="40" height="40" rx="20" fill="url(#paint0_radial_56_395)"/>
<path d="M16.4917 21.9587C16.4917 23.0405 15.6147 23.9175 14.533 23.9175C13.4512 23.9175 12.5742 23.0405 12.5742 21.9587C12.5742 20.877 13.4512 20 14.533 20C15.6147 20 16.4917 20.877 16.4917 21.9587Z" fill="#4D4C67"/>
<path d="M25.9722 14.9071C25.9722 15.9889 25.0952 16.8658 24.0134 16.8658C22.9316 16.8658 22.0547 15.9889 22.0547 14.9071C22.0547 13.8253 22.9316 12.9484 24.0134 12.9484C25.0952 12.9484 25.9722 13.8253 25.9722 14.9071Z" fill="#4D4C67"/>
<path fill-rule="evenodd" clip-rule="evenodd" d="M13.6043 25.0081C13.341 25.3263 12.8702 25.3752 12.5469 25.116C12.2205 24.8542 12.1681 24.3774 12.4298 24.051L13.0208 24.5249C12.4298 24.051 12.43 24.0508 12.4302 24.0505L12.4306 24.05L12.4315 24.0489L12.4334 24.0466L12.4378 24.0412L12.449 24.0278C12.4576 24.0178 12.4683 24.0054 12.4812 23.9912C12.5069 23.9628 12.5415 23.9263 12.5846 23.8851C12.67 23.8036 12.7941 23.698 12.9539 23.5984C13.2734 23.3992 13.7746 23.202 14.3876 23.3252C14.562 23.3602 14.655 23.3719 14.7099 23.3736C14.712 23.3737 14.7139 23.3737 14.7157 23.3737C14.7245 23.3667 14.7366 23.3565 14.7524 23.3421C14.8153 23.2844 14.8946 23.1994 15.0278 23.0523C15.4329 22.6048 15.9442 22.4254 16.3068 22.3515C16.4927 22.3137 16.6559 22.3 16.7745 22.2957C16.8344 22.2936 16.8843 22.2937 16.9217 22.2946C16.9405 22.2951 16.9563 22.2957 16.9688 22.2963L16.985 22.2972L16.9912 22.2977L16.9938 22.2978L16.995 22.2979L16.9956 22.298C16.9959 22.298 16.9961 22.298 16.9405 23.0535L16.9961 22.298C17.4134 22.3287 17.7268 22.6919 17.696 23.1091C17.6655 23.5238 17.3066 23.8359 16.8926 23.8096L16.8854 23.8093C16.8752 23.8091 16.8557 23.8089 16.8291 23.8099C16.7749 23.8118 16.6968 23.8183 16.6093 23.8362C16.4251 23.8737 16.2608 23.9479 16.151 24.0691C16.1388 24.0826 16.1264 24.0964 16.1138 24.1104C15.9025 24.3447 15.6365 24.6397 15.2816 24.7843C14.865 24.9542 14.4447 24.8821 14.089 24.8106C13.9691 24.7865 13.8616 24.8179 13.7556 24.884C13.7027 24.917 13.6598 24.9534 13.6314 24.9805C13.6176 24.9937 13.6087 25.0033 13.605 25.0074C13.6047 25.0077 13.6045 25.0079 13.6043 25.0081Z" fill="#8E95A6"/>
<path fill-rule="evenodd" clip-rule="evenodd" d="M22.4226 17.2592C22.104 17.5219 21.6324 17.481 21.3639 17.1653C21.0928 16.8466 21.1315 16.3685 21.4502 16.0974L21.941 16.6745C21.4502 16.0974 21.4504 16.0972 21.4506 16.097L21.4512 16.0966L21.4522 16.0957L21.4545 16.0937L21.4598 16.0893L21.4734 16.0783C21.4837 16.07 21.4966 16.0599 21.5119 16.0483C21.5425 16.0253 21.5834 15.9961 21.6335 15.9637C21.7327 15.8998 21.8745 15.8196 22.0503 15.7519C22.4017 15.6167 22.9312 15.5178 23.5098 15.7546C23.6744 15.8219 23.7636 15.8509 23.8172 15.863C23.8192 15.8635 23.8211 15.8639 23.8228 15.8642C23.8328 15.859 23.8466 15.8513 23.8648 15.8401C23.9375 15.7953 24.0314 15.7269 24.1901 15.6076C24.6724 15.2447 25.2084 15.1651 25.5784 15.1611C25.7681 15.159 25.931 15.1764 26.0483 15.1947C26.1074 15.2038 26.1564 15.2134 26.193 15.2214C26.2114 15.2254 26.2268 15.229 26.2389 15.232L26.2547 15.2359L26.2607 15.2375L26.2632 15.2382L26.2644 15.2385L26.2649 15.2386C26.2652 15.2387 26.2655 15.2388 26.0681 15.9702L26.2655 15.2388C26.6694 15.3478 26.9085 15.7636 26.7995 16.1675C26.6912 16.569 26.2798 16.8076 25.8782 16.7036L25.8712 16.702C25.8612 16.6998 25.8421 16.6959 25.8158 16.6918C25.7621 16.6835 25.6843 16.6752 25.595 16.6761C25.4069 16.6782 25.2317 16.72 25.1009 16.8183C25.0864 16.8293 25.0716 16.8405 25.0566 16.8518C24.8048 17.0419 24.4879 17.2813 24.112 17.3564C23.6708 17.4444 23.2717 17.2942 22.936 17.1569C22.8228 17.1105 22.7113 17.121 22.5947 17.1659C22.5364 17.1883 22.4875 17.2159 22.4544 17.2372C22.4385 17.2475 22.4278 17.2553 22.4235 17.2586C22.4231 17.2588 22.4229 17.259 22.4226 17.2592Z" fill="#8E95A6"/>
<path d="M11.9662 28.6683C11.8166 29.086 11.3567 29.3034 10.939 29.1538C10.5212 29.0042 10.3039 28.5442 10.4535 28.1265C10.6031 27.7088 11.4002 26.55 11.8179 26.6996C12.2356 26.8492 12.1158 28.2506 11.9662 28.6683Z" fill="#858B9C"/>
<path d="M9.19406 31.7443C8.97968 31.9973 8.60078 32.0286 8.34777 31.8142C8.09475 31.5998 8.06344 31.2209 8.27783 30.9679C8.49221 30.7149 9.35428 30.1134 9.60729 30.3278C9.8603 30.5421 9.40845 31.4913 9.19406 31.7443Z" fill="#969EB0"/>
<path fill-rule="evenodd" clip-rule="evenodd" d="M22.989 19.0928C22.989 19.368 22.7667 19.5912 22.4919 19.5928L22.489 19.5928C22.485 19.5929 22.4771 19.5932 22.4656 19.5938C22.4426 19.5951 22.4057 19.5978 22.3577 19.6036C22.2611 19.6152 22.1227 19.6389 21.9637 19.6868C21.6442 19.7829 21.2615 19.9703 20.9575 20.3348C20.6165 20.7435 20.3905 21.1915 20.2495 21.5429C20.1796 21.7173 20.1319 21.8645 20.1021 21.9662C20.0872 22.017 20.0769 22.0562 20.0706 22.0814L20.064 22.1085L20.063 22.1127C20.0049 22.3825 19.739 22.5544 19.4691 22.4964C19.1991 22.4383 19.0273 22.1724 19.0854 21.9024L19.5742 22.0076C19.0854 21.9024 19.0853 21.9026 19.0854 21.9024L19.0856 21.9013L19.086 21.8997L19.0869 21.8954L19.0899 21.8822C19.0925 21.8713 19.096 21.8565 19.1006 21.8381C19.1099 21.8011 19.1236 21.7494 19.1423 21.6853C19.1798 21.5573 19.2378 21.3791 19.3215 21.1705C19.4879 20.7557 19.7616 20.2072 20.1896 19.6942C20.6544 19.137 21.2295 18.8635 21.6755 18.7292C21.8993 18.6618 22.0955 18.6279 22.238 18.6108C22.3095 18.6022 22.3682 18.5977 22.4109 18.5953C22.4322 18.5942 22.4497 18.5935 22.4628 18.5932L22.4793 18.5928L22.485 18.5928L22.4872 18.5928L22.4886 18.5928C22.4888 18.5928 22.489 18.5928 22.489 19.0928L22.4886 18.5928C22.7647 18.5928 22.989 18.8166 22.989 19.0928Z" fill="#4D4C67"/>
<defs>
<radialGradient id="paint0_radial_56_395" cx="0" cy="0" r="1" gradientUnits="userSpaceOnUse" gradientTransform="translate(22.9165 24.1882) rotate(95.5656) scale(30.0718)">
<stop stop-color="#E1E6FF"/>
<stop offset="1" stop-color="#8D8BA7"/>
</radialGradient>
</defs>
</svg>
