<svg width="40" height="40" viewBox="0 0 40 40" fill="none" xmlns="http://www.w3.org/2000/svg">
<rect width="40" height="40" rx="20" fill="url(#paint0_radial_56_391)"/>
<path d="M16.4917 21.9587C16.4917 23.0405 15.6147 23.9175 14.533 23.9175C13.4512 23.9175 12.5742 23.0405 12.5742 21.9587C12.5742 20.877 13.4512 20 14.533 20C15.6147 20 16.4917 20.877 16.4917 21.9587Z" fill="#6C5C53"/>
<path d="M25.9722 14.9071C25.9722 15.9889 25.0952 16.8658 24.0134 16.8658C22.9316 16.8658 22.0547 15.9889 22.0547 14.9071C22.0547 13.8253 22.9316 12.9484 24.0134 12.9484C25.0952 12.9484 25.9722 13.8253 25.9722 14.9071Z" fill="#6C5C53"/>
<path fill-rule="evenodd" clip-rule="evenodd" d="M22.8426 18.7392C23.0378 18.9345 23.0378 19.2511 22.8426 19.4463L19.9278 22.3611C19.7325 22.5564 19.4159 22.5564 19.2207 22.3611C19.0254 22.1659 19.0254 21.8493 19.2207 21.654L22.1355 18.7392C22.3307 18.544 22.6473 18.544 22.8426 18.7392Z" fill="#6C5C53"/>
<defs>
<radialGradient id="paint0_radial_56_391" cx="0" cy="0" r="1" gradientUnits="userSpaceOnUse" gradientTransform="translate(22.9165 24.1882) rotate(95.5656) scale(30.0718)">
<stop stop-color="#E9D6C3"/>
<stop offset="1" stop-color="#9D8D86"/>
</radialGradient>
</defs>
</svg>
